<svg width="131" height="126" viewBox="0 0 131 126" fill="none" xmlns="http://www.w3.org/2000/svg">
<path d="M48.0401 47.0978H21.3467C13.9755 47.0978 8 54.2323 8 63.0327V71.0002H34.6934H58.9601L49.2534 65.8783L46.8268 64.171C40.3556 57.3417 55.4112 47.0978 48.0401 47.0978Z" stroke="#22EECC" stroke-width="1.5" stroke-linecap="round" stroke-linejoin="round"/>
<path d="M37.159 31.7727C45.2109 31.7727 51.7385 24.884 51.7385 16.3864C51.7385 7.8887 45.2109 1 37.159 1C29.107 1 22.5796 7.8887 22.5796 16.3864C22.5796 24.884 29.107 31.7727 37.159 31.7727Z" stroke="#22EECC" stroke-width="1.5" stroke-linecap="round" stroke-linejoin="round"/>
<path d="M95.4204 47.8178L51.8162 47.0978C49.3895 52.0762 43.5911 58.8538 46.8266 63.1221L48.4445 64.8294L53.2975 67.5856L55.7234 69.0977L58.959 70.8973H63.0061H78.3745H110V63.2041C110 54.7066 103.472 47.8178 95.4204 47.8178Z" stroke="#1F4690" stroke-width="1.5" stroke-linecap="round" stroke-linejoin="round"/>
<path d="M80.842 31.7727C88.8939 31.7727 95.4215 24.884 95.4215 16.3864C95.4215 7.8887 88.8939 1 80.842 1C72.79 1 66.2625 7.8887 66.2625 16.3864C66.2625 24.884 72.79 31.7727 80.842 31.7727Z" stroke="#1F4690" stroke-width="1.5" stroke-linecap="round" stroke-linejoin="round"/>
<path d="M31.6016 105.039C30.9505 105.091 30.4167 105.182 30 105.312C29.6094 105.417 29.2969 105.599 29.0625 105.859C28.8542 106.094 28.7109 106.432 28.6328 106.875C28.5547 107.292 28.5156 107.826 28.5156 108.477V117.5C28.0729 117.891 27.4219 118.281 26.5625 118.672C25.7031 119.036 24.7396 119.375 23.6719 119.688C22.6302 119.974 21.5495 120.195 20.4297 120.352C19.3359 120.534 18.3073 120.625 17.3438 120.625C14.8698 120.625 12.5781 120.221 10.4688 119.414C8.38542 118.607 6.60156 117.422 5.11719 115.859C3.86719 114.531 2.94271 113.021 2.34375 111.328C1.74479 109.635 1.44531 107.708 1.44531 105.547C1.44531 103.255 1.82292 101.159 2.57812 99.2578C3.33333 97.3307 4.375 95.6771 5.70312 94.2969C7.05729 92.9167 8.65885 91.8359 10.5078 91.0547C12.3828 90.2734 14.4401 89.8828 16.6797 89.8828C18.7109 89.8828 20.7422 90.2214 22.7734 90.8984C23.6328 91.2109 24.2969 91.3672 24.7656 91.3672C25.2344 91.3672 25.651 91.224 26.0156 90.9375C26.3802 90.651 26.6276 90.2995 26.7578 89.8828H27.6953L28.0859 99.2969H27.0703C26.7839 98.6198 26.5234 98.0339 26.2891 97.5391C26.0547 97.0182 25.8073 96.5625 25.5469 96.1719C25.3125 95.7552 25.0651 95.3906 24.8047 95.0781C24.5443 94.7396 24.2448 94.4141 23.9062 94.1016C22.1354 92.4609 19.987 91.6406 17.4609 91.6406C15.8464 91.6406 14.349 91.9531 12.9688 92.5781C11.6146 93.2031 10.4557 94.1016 9.49219 95.2734C8.58073 96.3932 7.85156 97.8776 7.30469 99.7266C6.75781 101.549 6.48438 103.464 6.48438 105.469C6.48438 107.552 6.75781 109.427 7.30469 111.094C7.85156 112.734 8.63281 114.128 9.64844 115.273C10.6641 116.419 11.888 117.305 13.3203 117.93C14.7786 118.555 16.4193 118.867 18.2422 118.867C19.0495 118.867 19.8047 118.802 20.5078 118.672C21.237 118.516 21.875 118.32 22.4219 118.086C22.9688 117.852 23.3984 117.578 23.7109 117.266C24.0234 116.927 24.1797 116.576 24.1797 116.211V108.984C24.1797 108.177 24.1406 107.526 24.0625 107.031C23.9844 106.536 23.8021 106.159 23.5156 105.898C23.2552 105.612 22.8646 105.417 22.3438 105.312C21.8229 105.182 21.1198 105.091 20.2344 105.039V104.219H31.6016V105.039ZM59.4141 108.672C59.4141 110.391 59.2969 111.823 59.0625 112.969C58.8542 114.089 58.4896 115.117 57.9688 116.055C56.1979 119.102 52.8646 120.625 47.9688 120.625C44.1667 120.625 41.3542 119.701 39.5312 117.852C37.7083 116.003 36.7969 113.138 36.7969 109.258V95.3516C36.7969 94.5443 36.7448 93.8932 36.6406 93.3984C36.5625 92.9036 36.3802 92.513 36.0938 92.2266C35.8333 91.9401 35.4427 91.7448 34.9219 91.6406C34.401 91.5104 33.6979 91.4193 32.8125 91.3672V90.4688H45.4297V91.3672C44.5182 91.4453 43.7891 91.5495 43.2422 91.6797C42.7214 91.7839 42.3177 91.9792 42.0312 92.2656C41.7448 92.5521 41.5495 92.9427 41.4453 93.4375C41.3672 93.9062 41.3281 94.5443 41.3281 95.3516V109.609C41.3281 111.016 41.4193 112.174 41.6016 113.086C41.7839 113.997 42.0703 114.805 42.4609 115.508C43.6849 117.617 45.8724 118.672 49.0234 118.672C50.7161 118.672 52.2266 118.359 53.5547 117.734C54.8828 117.109 55.8464 116.263 56.4453 115.195C56.8099 114.492 57.0573 113.685 57.1875 112.773C57.3438 111.836 57.4219 110.599 57.4219 109.062V97.0312C57.4219 95.9115 57.3698 95 57.2656 94.2969C57.1615 93.5938 56.9531 93.0339 56.6406 92.6172C56.3542 92.2005 55.9375 91.901 55.3906 91.7188C54.8698 91.5365 54.1797 91.4193 53.3203 91.3672V90.4688H63.6328V91.3672C62.7214 91.4714 61.9792 91.6146 61.4062 91.7969C60.8594 91.9792 60.4297 92.2656 60.1172 92.6562C59.8307 93.0469 59.6354 93.5938 59.5312 94.2969C59.4531 95 59.4141 95.9115 59.4141 97.0312V108.672ZM73.2812 92.3438C72.0312 92.3438 71.0026 92.4089 70.1953 92.5391C69.4141 92.6693 68.763 92.9427 68.2422 93.3594C67.7474 93.776 67.3438 94.362 67.0312 95.1172C66.7448 95.8464 66.4714 96.8229 66.2109 98.0469H65.1172L65.3906 90.4688H90.5469L90.8203 98.0469H89.7266C89.4661 96.8229 89.1797 95.8464 88.8672 95.1172C88.5807 94.362 88.1901 93.776 87.6953 93.3594C87.2005 92.9427 86.5495 92.6693 85.7422 92.5391C84.9349 92.4089 83.8932 92.3438 82.6172 92.3438H80.2344V115.195C80.2344 116.003 80.2865 116.654 80.3906 117.148C80.4948 117.643 80.6901 118.034 80.9766 118.32C81.2891 118.607 81.7188 118.815 82.2656 118.945C82.8385 119.049 83.5807 119.128 84.4922 119.18V120H71.5234V119.18C72.4349 119.128 73.1641 119.049 73.7109 118.945C74.2578 118.815 74.6745 118.594 74.9609 118.281C75.2734 117.943 75.4688 117.487 75.5469 116.914C75.651 116.341 75.7031 115.586 75.7031 114.648V92.3438H73.2812ZM114.453 104.023V95.3516C114.453 94.5443 114.401 93.9062 114.297 93.4375C114.219 92.9427 114.036 92.5521 113.75 92.2656C113.49 91.9792 113.099 91.7839 112.578 91.6797C112.057 91.5495 111.367 91.4453 110.508 91.3672V90.4688H122.891V91.3672C122.031 91.4453 121.341 91.5495 120.82 91.6797C120.299 91.7839 119.896 91.9792 119.609 92.2656C119.349 92.5521 119.18 92.9427 119.102 93.4375C119.023 93.9062 118.984 94.5443 118.984 95.3516V115.195C118.984 115.977 119.023 116.615 119.102 117.109C119.206 117.578 119.401 117.956 119.688 118.242C119.974 118.529 120.365 118.737 120.859 118.867C121.38 118.997 122.057 119.102 122.891 119.18V120H110.508V119.18C111.367 119.128 112.057 119.049 112.578 118.945C113.099 118.815 113.49 118.594 113.75 118.281C114.036 117.943 114.219 117.487 114.297 116.914C114.401 116.341 114.453 115.586 114.453 114.648V105.977H100.898V115.195C100.898 115.977 100.938 116.615 101.016 117.109C101.12 117.578 101.315 117.956 101.602 118.242C101.888 118.529 102.292 118.737 102.812 118.867C103.333 118.997 104.01 119.102 104.844 119.18V120H92.4219V119.18C93.3073 119.128 94.0104 119.049 94.5312 118.945C95.0521 118.815 95.4427 118.594 95.7031 118.281C95.9896 117.943 96.1719 117.487 96.25 116.914C96.3281 116.341 96.3672 115.586 96.3672 114.648V95.3516C96.3672 94.5443 96.3151 93.9062 96.2109 93.4375C96.1328 92.9427 95.9505 92.5521 95.6641 92.2656C95.4036 91.9792 95.013 91.7839 94.4922 91.6797C93.9714 91.5495 93.2812 91.4453 92.4219 91.3672V90.4688H104.844V91.3672C103.984 91.4453 103.294 91.5495 102.773 91.6797C102.253 91.7839 101.849 91.9792 101.562 92.2656C101.302 92.5521 101.12 92.9427 101.016 93.4375C100.938 93.9062 100.898 94.5443 100.898 95.3516V104.023H114.453Z" fill="#001A72"/>
</svg>
