<svg width="101" height="34" viewBox="0 0 101 34" fill="none" xmlns="http://www.w3.org/2000/svg">
<path d="M14.6209 17.9207H5.59119C3.09771 17.9207 1.07635 20.5046 1.07635 23.6919V26.5775H10.106H18.3148L15.0313 24.7224L14.2104 24.1041C12.0214 21.6307 17.1143 17.9207 14.6209 17.9207Z" stroke="#22EECC" stroke-width="1.5" stroke-linecap="round" stroke-linejoin="round"/>
<path d="M10.9401 12.3704C13.6638 12.3704 15.8719 9.87549 15.8719 6.79787C15.8719 3.72024 13.6638 1.22534 10.9401 1.22534C8.21627 1.22534 6.00821 3.72024 6.00821 6.79787C6.00821 9.87549 8.21627 12.3704 10.9401 12.3704Z" stroke="#22EECC" stroke-width="1.5" stroke-linecap="round" stroke-linejoin="round"/>
<path d="M30.6485 18.1814L15.8983 17.9207C15.0774 19.7237 13.116 22.1784 14.2105 23.7242L14.7578 24.3426L16.3994 25.3408L17.22 25.8884L18.3145 26.5402H19.6836H24.8823H35.5803V23.7539C35.5803 20.6764 33.3722 18.1814 30.6485 18.1814Z" stroke="#1F4690" stroke-width="1.5" stroke-linecap="round" stroke-linejoin="round"/>
<path d="M25.7169 12.3704C28.4406 12.3704 30.6487 9.87549 30.6487 6.79787C30.6487 3.72024 28.4406 1.22534 25.7169 1.22534C22.9931 1.22534 20.785 3.72024 20.785 6.79787C20.785 9.87549 22.9931 12.3704 25.7169 12.3704Z" stroke="#1F4690" stroke-width="1.5" stroke-linecap="round" stroke-linejoin="round"/>
<path d="M47.5643 27.862L48.2668 25.7329C50.2948 25.7412 52.0374 25.6963 53.4947 25.5983C54.9693 25.5003 56.176 25.3406 57.1148 25.1191C58.0711 24.8804 58.7771 24.5626 59.2327 24.1658C59.7059 23.7517 59.9461 23.2501 59.9534 22.6608C59.9616 22.0022 59.8498 21.2391 59.6179 20.3715C59.386 19.5039 59.0855 18.5753 58.7165 17.5859L60.7272 16.8921C60.9456 17.4476 61.1462 18.0464 61.3289 18.6885C61.5291 19.3133 61.6947 19.938 61.8256 20.5625C61.9567 21.1697 62.0191 21.7332 62.0126 22.2532C61.9999 23.2758 61.755 24.1501 61.278 24.8761C60.8012 25.5848 60.0139 26.1623 58.9164 26.6084C57.8188 27.0546 56.3413 27.3779 54.4841 27.5783C52.6442 27.7788 50.3376 27.8733 47.5643 27.862ZM47.5643 27.862C46.0216 27.8557 44.6623 27.7461 43.4862 27.5333C42.3272 27.3379 41.3604 27.0306 40.5855 26.6115C39.8107 26.1923 39.2281 25.6526 38.8376 24.9924C38.4473 24.3148 38.2581 23.4994 38.27 22.5461C38.2753 22.1128 38.3155 21.671 38.3904 21.2206C38.4656 20.753 38.5581 20.2854 38.6679 19.8178C38.795 19.3503 38.922 18.9002 39.0487 18.4674L40.9925 18.9693C40.92 19.229 40.8381 19.5407 40.7469 19.9043C40.6559 20.2506 40.5735 20.6056 40.4996 20.9693C40.4431 21.333 40.413 21.6622 40.4094 21.9569C40.3982 22.8581 40.6145 23.587 41.0582 24.1435C41.5195 24.6827 42.3206 25.0846 43.4613 25.3493C44.6023 25.5966 46.2041 25.7245 48.2668 25.7329L48.7706 27.0349L47.5643 27.862ZM50.3101 14.0416C49.9461 14.0401 49.6357 13.9175 49.3787 13.6738C49.1392 13.4128 49.0217 13.109 49.026 12.7624C49.0303 12.4157 49.1554 12.1129 49.4013 11.8539C49.6645 11.595 49.9781 11.4663 50.3421 11.4678C50.6888 11.4692 50.9818 11.6004 51.2213 11.8614C51.478 12.1224 51.6043 12.4262 51.6 12.7729C51.5957 13.1195 51.4619 13.4223 51.1987 13.6812C50.953 13.9229 50.6568 14.043 50.3101 14.0416ZM48.5066 16.8941C48.1426 16.8926 47.8321 16.77 47.5752 16.5263C47.3357 16.2654 47.2182 15.9615 47.2225 15.6149C47.2268 15.2683 47.3519 14.9655 47.5978 14.7065C47.861 14.4475 48.1746 14.3188 48.5386 14.3203C48.8853 14.3217 49.1783 14.4529 49.4177 14.7139C49.6745 14.9749 49.8007 15.2788 49.7964 15.6254C49.7921 15.9721 49.6584 16.2748 49.3951 16.5338C49.1495 16.7754 48.8533 16.8955 48.5066 16.8941ZM52.0426 16.9086C51.6786 16.9071 51.3681 16.7845 51.1111 16.5408C50.8717 16.2798 50.7541 15.976 50.7584 15.6294C50.7627 15.2827 50.8878 14.9799 51.1337 14.7209C51.397 14.462 51.7106 14.3333 52.0746 14.3348C52.4212 14.3362 52.7143 14.4674 52.9537 14.7284C53.2105 14.9894 53.3367 15.2932 53.3324 15.6399C53.3281 15.9865 53.1943 16.2893 52.9311 16.5482C52.6854 16.7899 52.3893 16.91 52.0426 16.9086ZM64.4269 33.3648L63.9854 31.231C65.0271 31.0966 65.9829 30.9012 66.8528 30.6448C67.7398 30.4057 68.4982 30.0535 69.128 29.5881C69.7752 29.1228 70.2768 28.5095 70.6329 27.7483C70.9891 26.9871 71.1743 26.0346 71.1885 24.8907C71.2031 23.7121 70.9986 22.7319 70.575 21.9502C70.1514 21.1685 69.5929 20.7762 68.8995 20.7734C68.5355 20.7719 68.1958 20.9092 67.8804 21.1852C67.5649 21.4613 67.3003 21.8328 67.0865 22.3C66.89 22.7671 66.7883 23.278 66.7814 23.8327C66.7776 24.1446 66.8437 24.4049 66.9797 24.6135C67.116 24.8047 67.3134 24.9615 67.5719 25.0839C67.848 25.189 68.1937 25.2684 68.609 25.3221C69.0244 25.3758 69.5094 25.4038 70.064 25.406L75.55 25.4285C75.914 25.43 76.1727 25.535 76.3261 25.7436C76.4971 25.935 76.5808 26.1693 76.5774 26.4467C76.5739 26.724 76.4494 26.9835 76.2037 27.2251C75.9582 27.4494 75.6448 27.5608 75.2635 27.5593L69.0495 27.5338C68.2696 27.5307 67.543 27.415 66.8698 27.1869C66.2139 26.9589 65.6809 26.6101 65.2707 26.1404C64.8781 25.6535 64.6866 25.0201 64.6963 24.2401C64.7053 23.5122 64.8266 22.8194 65.0601 22.1617C65.2939 21.4866 65.6046 20.8899 65.9924 20.3715C66.3978 19.8359 66.8624 19.4131 67.3862 19.1033C67.9274 18.7935 68.51 18.6399 69.134 18.6424C69.9314 18.6457 70.6391 18.8826 71.2573 19.3531C71.8755 19.8236 72.3606 20.5362 72.7128 21.491C73.0652 22.4284 73.2324 23.6164 73.2145 25.0549C73.1945 26.6668 72.8479 28.052 72.1748 29.2106C71.5189 30.3865 70.5366 31.3185 69.228 32.0065C67.9367 32.6945 66.3363 33.1473 64.4269 33.3648ZM74.9952 27.5582L75.2817 25.4274C76.3736 25.4318 77.2144 25.4266 77.804 25.4117C78.4108 25.3968 78.853 25.3813 79.1306 25.3651C79.4084 25.3316 79.5992 25.315 79.7032 25.3155C79.3934 25.1409 79.0327 24.8707 78.6213 24.5051C78.21 24.1221 77.8519 23.6439 77.547 23.0707C77.2424 22.4801 77.095 21.7862 77.1049 20.989C77.1172 20.001 77.3533 19.1354 77.8132 18.3919C78.2904 17.6486 78.9303 17.0705 79.7328 16.6578C80.5526 16.2452 81.4826 16.041 82.5225 16.0452C82.9212 16.0469 83.3454 16.0833 83.7952 16.1544C84.245 16.2256 84.6771 16.3314 85.0914 16.4717L84.6245 18.4718C84.2789 18.3837 83.9158 18.3129 83.5351 18.2593C83.1544 18.2058 82.8081 18.1784 82.4961 18.1771C81.8721 18.1745 81.3159 18.2936 80.8275 18.5342C80.3394 18.7576 79.9541 19.0767 79.6716 19.4915C79.3891 19.9063 79.2442 20.4084 79.2369 20.9977C79.2313 21.4483 79.3214 21.8647 79.5074 22.2467C79.6935 22.6115 79.9407 22.9418 80.2491 23.2378C80.5574 23.5337 80.9011 23.7777 81.28 23.97C81.659 24.1622 82.0298 24.311 82.3925 24.4165C82.7726 24.522 83.11 24.5668 83.4049 24.5506C83.6138 24.4821 83.8052 24.4223 83.9792 24.371C84.1531 24.3197 84.3445 24.2598 84.5534 24.1913C84.7798 24.1056 85.0499 23.994 85.3636 23.8567C85.6947 23.7193 86.1129 23.5391 86.6184 23.3158L87.3228 25.2166C86.1556 25.6798 84.9632 26.091 83.7453 26.45C82.5448 26.809 81.2326 27.0897 79.8087 27.2918C78.4023 27.4768 76.7978 27.5655 74.9952 27.5582ZM82.0618 13.3654C81.6978 13.3639 81.3873 13.2413 81.1304 12.9976C80.8909 12.7367 80.7734 12.4328 80.7777 12.0862C80.782 11.7396 80.9071 11.4368 81.153 11.1778C81.4162 10.9189 81.7298 10.7901 82.0938 10.7916C82.4405 10.793 82.7335 10.9242 82.973 11.1852C83.2297 11.4463 83.356 11.7501 83.3516 12.0967C83.3473 12.4434 83.2136 12.7462 82.9503 13.0051C82.7047 13.2467 82.4085 13.3668 82.0618 13.3654Z" fill="#1F4690"/>
</svg>
